<svg width="22" height="23" viewBox="0 0 22 23" fill="none" xmlns="http://www.w3.org/2000/svg">
<path d="M15 22.027V18.157C15.0375 17.6802 14.9731 17.2008 14.811 16.7508C14.6489 16.3008 14.3929 15.8904 14.06 15.547C17.2 15.197 20.5 14.007 20.5 8.54702C20.4997 7.15085 19.9627 5.80822 19 4.79702C19.4559 3.57553 19.5136 2.2251 19 1.02675C19 1.02675 17.73 0.677024 15 2.50702C12.708 1.88585 10.292 1.88585 8 2.50702C5.27 0.677024 4.09 1.02702 4.09 1.02702C3.57638 2.22537 3.54414 3.57553 4 4.79702C3.03013 5.81572 2.49252 7.17049 2.5 8.57702C2.5 13.997 5.8 15.187 8.94 15.577C8.611 15.917 8.35726 16.3224 8.19531 16.7669C8.03335 17.2115 7.96681 17.6851 8 18.157V22.027M8 19.027C3 20.527 3 16.527 1 16.027L8 19.027Z" stroke="white" stroke-width="1.5" stroke-linecap="round" stroke-linejoin="round"/>
</svg>
