<svg width="23" height="23" viewBox="0 0 23 23" fill="none" xmlns="http://www.w3.org/2000/svg">
<path d="M16.5 1.51355H6.5C3.73858 1.51355 1.5 3.75213 1.5 6.51355V16.5135C1.5 19.275 3.73858 21.5135 6.5 21.5135H16.5C19.2614 21.5135 21.5 19.275 21.5 16.5135V6.51355C21.5 3.75213 19.2614 1.51355 16.5 1.51355Z" stroke="white" stroke-width="1.5" stroke-linecap="round" stroke-linejoin="round"/>
<path d="M15.5002 10.8836C15.6236 11.7159 15.4815 12.5658 15.094 13.3126C14.7065 14.0594 14.0933 14.665 13.3418 15.0433C12.5903 15.4215 11.7386 15.5532 10.908 15.4195C10.0773 15.2859 9.30996 14.8937 8.71503 14.2988C8.12011 13.7038 7.72793 12.9365 7.59426 12.1058C7.4606 11.2752 7.59226 10.4235 7.97052 9.67198C8.34878 8.92046 8.95438 8.30735 9.70118 7.91985C10.448 7.53235 11.2979 7.3902 12.1302 7.51361C12.9791 7.63949 13.765 8.03507 14.3719 8.64191C14.9787 9.24876 15.3743 10.0347 15.5002 10.8836Z" stroke="white" stroke-width="1.5" stroke-linecap="round" stroke-linejoin="round"/>
<path d="M17 6.01355H17.01" stroke="white" stroke-width="1.5" stroke-linecap="round" stroke-linejoin="round"/>
</svg>
