<svg width="23" height="21" viewBox="0 0 23 21" fill="none" xmlns="http://www.w3.org/2000/svg">
<path d="M15.5 7.01355C17.0913 7.01355 18.6174 7.64569 19.7426 8.77091C20.8679 9.89613 21.5 11.4223 21.5 13.0135V20.0135H17.5V13.0135C17.5 12.4831 17.2893 11.9744 16.9142 11.5993C16.5391 11.2243 16.0304 11.0135 15.5 11.0135C14.9696 11.0135 14.4609 11.2243 14.0858 11.5993C13.7107 11.9744 13.5 12.4831 13.5 13.0135V20.0135H9.5V13.0135C9.5 11.4223 10.1321 9.89613 11.2574 8.77091C12.3826 7.64569 13.9087 7.01355 15.5 7.01355V7.01355Z" stroke="white" stroke-width="1.5" stroke-linecap="round" stroke-linejoin="round"/>
<path d="M5.5 8.01355H1.5V20.0135H5.5V8.01355Z" stroke="white" stroke-width="1.5" stroke-linecap="round" stroke-linejoin="round"/>
<path d="M3.5 5.01355C4.60457 5.01355 5.5 4.11812 5.5 3.01355C5.5 1.90898 4.60457 1.01355 3.5 1.01355C2.39543 1.01355 1.5 1.90898 1.5 3.01355C1.5 4.11812 2.39543 5.01355 3.5 5.01355Z" stroke="white" stroke-width="1.5" stroke-linecap="round" stroke-linejoin="round"/>
</svg>
