<?xml version="1.0" standalone="no"?>
<!DOCTYPE svg PUBLIC "-//W3C//DTD SVG 20010904//EN"
 "http://www.w3.org/TR/2001/REC-SVG-20010904/DTD/svg10.dtd">
<svg version="1.0" xmlns="http://www.w3.org/2000/svg"
 width="71.000000pt" height="71.000000pt" viewBox="0 0 71.000000 71.000000"
 preserveAspectRatio="xMidYMid meet">
<metadata>
Created by potrace 1.11, written by Peter Selinger 2001-2013
</metadata>
<g transform="translate(0.000000,71.000000) scale(0.100000,-0.100000)"
fill="#000000" stroke="none">
<path d="M244 682 c-89 -32 -159 -94 -204 -182 -35 -67 -40 -195 -10 -272 42
-111 162 -207 281 -223 141 -20 295 67 360 203 33 70 38 189 9 264 -28 75
-104 159 -177 194 -73 36 -184 43 -259 16z m-38 -274 l20 -63 15 60 c12 47 19
60 34 60 15 0 22 -13 34 -60 l15 -60 20 63 c14 44 25 62 37 62 15 0 14 -10
-12 -97 -16 -53 -29 -98 -29 -100 0 -1 -8 -3 -18 -3 -14 0 -22 14 -33 63 l-15
62 -14 -60 c-12 -47 -19 -60 -34 -60 -15 0 -24 19 -47 95 -16 52 -29 96 -29
98 0 1 8 2 18 2 13 0 23 -16 38 -62z m304 -18 c41 -41 12 -120 -45 -120 -30 0
-75 41 -75 68 0 59 79 93 120 52z"/>
<path d="M440 365 c-19 -22 -8 -50 21 -53 31 -4 44 19 29 49 -13 23 -33 25
-50 4z"/>
</g>
</svg>
